<svg width="406" height="200" viewBox="0 0 406 200" fill="none" xmlns="http://www.w3.org/2000/svg">
<path d="M58 101.125C56.5833 104.292 54.7917 106.917 52.625 109C50.4583 111 48.1667 112.625 45.75 113.875C43.3333 115.042 40.875 115.875 38.375 116.375C35.9583 116.875 33.75 117.125 31.75 117.125C28.75 117.125 25.5417 116.417 22.125 115C18.7917 113.5 15.7083 111.375 12.875 108.625C10.125 105.792 7.83333 102.292 6 98.125C4.16667 93.9583 3.25 89.125 3.25 83.625C3.25 79.7083 3.875 75.6667 5.125 71.5C6.375 67.3333 8.20833 63.5417 10.625 60.125C13.125 56.7083 16.2083 53.9167 19.875 51.75C23.5417 49.5 27.7917 48.375 32.625 48.375C34.7083 48.375 36.8333 48.625 39 49.125C41.1667 49.625 43.2083 50.375 45.125 51.375C47.125 52.2917 48.9583 53.4583 50.625 54.875C52.2917 56.2917 53.6667 57.875 54.75 59.625C55.25 60.625 55.5 61.5 55.5 62.25C55.5 63.5 54.9583 64.5833 53.875 65.5C52.7917 66.3333 51.6667 66.75 50.5 66.75C49.5 66.75 48.75 66.375 48.25 65.625C46.0833 62.9583 43.6667 61.0417 41 59.875C38.3333 58.7083 35.7083 58.125 33.125 58.125C29.9583 58.125 27.125 58.9167 24.625 60.5C22.2083 62.0833 20.125 64.125 18.375 66.625C16.7083 69.125 15.4167 71.875 14.5 74.875C13.6667 77.875 13.25 80.7917 13.25 83.625C13.25 87.4583 13.8333 90.875 15 93.875C16.1667 96.875 17.6667 99.4167 19.5 101.5C21.4167 103.583 23.5417 105.167 25.875 106.25C28.2083 107.333 30.5417 107.875 32.875 107.875C37.2083 107.875 40.9583 106.708 44.125 104.375C47.375 101.958 49.5833 99.0417 50.75 95.625C51.3333 94.625 52.4167 94.125 54 94.125C55.0833 94.125 56.0417 94.5 56.875 95.25C57.7917 96 58.25 97.25 58.25 99C58.25 99.3333 58.2083 99.6667 58.125 100C58.125 100.333 58.0833 100.708 58 101.125ZM69.25 59.875C68.6667 59.2083 68.375 58.375 68.375 57.375C68.375 56.125 68.8333 55.0417 69.75 54.125C70.6667 53.125 71.8333 52.625 73.25 52.625C74.5 52.625 75.625 53.125 76.625 54.125C77.7083 55.125 78.6667 56.375 79.5 57.875C80.4167 59.375 81.1667 61 81.75 62.75C82.4167 64.5 82.9167 66.125 83.25 67.625C83.6667 69.5417 83.9583 71.75 84.125 74.25C84.2917 76.75 84.5 79.4167 84.75 82.25L96.375 81.875C98.5417 81.7917 100.708 81.75 102.875 81.75C105.042 81.6667 107.083 81.5417 109 81.375C108.75 78.125 108.542 75.25 108.375 72.75C108.208 70.1667 107.917 67.75 107.5 65.5C107.167 63.1667 106.667 60.7917 106 58.375C105.417 55.9583 104.5 53.2083 103.25 50.125C103 49.625 102.875 49.0833 102.875 48.5C102.875 47.0833 103.417 45.9583 104.5 45.125C105.583 44.2083 106.792 43.75 108.125 43.75C109.875 43.75 111.292 44.5833 112.375 46.25C113.542 47.9167 114.417 49.8333 115 52C115.667 54.0833 116.125 56.0833 116.375 58C116.708 59.8333 116.917 60.9583 117 61.375C117.25 62.625 117.458 64.2917 117.625 66.375C117.875 68.4583 118.042 70.7917 118.125 73.375C118.292 75.9583 118.417 78.7083 118.5 81.625C118.583 84.4583 118.625 87.375 118.625 90.375C118.625 95.125 118.542 99.75 118.375 104.25C118.292 108.75 118.083 112.708 117.75 116.125C117.583 117.542 117.042 118.542 116.125 119.125C115.292 119.792 114.417 120.125 113.5 120.125C112.333 120.125 111.208 119.792 110.125 119.125C109.042 118.458 108.5 117.458 108.5 116.125C108.5 112.292 108.625 108.208 108.875 103.875C109.208 99.5417 109.375 95.0833 109.375 90.5C107.625 90.6667 105.625 90.7917 103.375 90.875C101.208 90.875 99 90.9167 96.75 91L84.875 91.375C84.875 95.375 84.75 99.375 84.5 103.375C84.3333 107.375 84.0833 111.042 83.75 114.375C83.5833 115.792 83 116.875 82 117.625C81 118.458 79.9167 118.875 78.75 118.875C77.5833 118.875 76.5833 118.542 75.75 117.875C74.9167 117.292 74.5 116.375 74.5 115.125C74.5 110.875 74.625 106.458 74.875 101.875C75.2083 97.2917 75.375 92.75 75.375 88.25C75.375 84.9167 75.25 81.75 75 78.75C74.8333 75.75 74.4167 72.9583 73.75 70.375L72.25 65.625C72 64.7917 71.5833 63.9167 71 63C70.5 62 69.9167 60.9583 69.25 59.875ZM149.75 48.125C150.417 46.9583 151.25 46.25 152.25 46C153.25 45.6667 154.208 45.5 155.125 45.5C156.542 45.5 158.208 47.5 160.125 51.5C162.042 55.5 164.042 60.7083 166.125 67.125C168.292 73.5417 170.458 80.7917 172.625 88.875C174.792 96.9583 176.75 105.125 178.5 113.375C178.5 113.542 178.5 113.708 178.5 113.875C178.583 113.958 178.625 114.083 178.625 114.25C178.625 115.583 178.083 116.708 177 117.625C175.917 118.542 174.667 119 173.25 119C172.333 119 171.542 118.708 170.875 118.125C170.208 117.625 169.75 116.708 169.5 115.375C169.083 112.958 168.375 110 167.375 106.5C166.375 103 165.417 99.25 164.5 95.25C162.667 95.4167 160.5 95.5833 158 95.75C155.583 95.8333 153.083 95.875 150.5 95.875C149.167 95.875 147.875 95.875 146.625 95.875C145.458 95.7917 144.292 95.7083 143.125 95.625C141.792 99.875 140.583 103.708 139.5 107.125C138.417 110.542 137.583 113.292 137 115.375C136.583 116.792 135.958 117.75 135.125 118.25C134.375 118.75 133.542 119 132.625 119C131.458 119 130.333 118.542 129.25 117.625C128.25 116.792 127.75 115.792 127.75 114.625C127.75 114.458 127.833 114.042 128 113.375L138.375 80C139.375 76.6667 140.417 73.375 141.5 70.125C142.583 66.7917 143.625 63.7083 144.625 60.875C145.625 58.0417 146.542 55.5417 147.375 53.375C148.292 51.125 149.083 49.375 149.75 48.125ZM154.5 61.25C153.167 64.8333 151.75 68.875 150.25 73.375C148.75 77.875 147.292 82.375 145.875 86.875C146.792 86.875 147.75 86.9167 148.75 87C149.75 87 150.75 87 151.75 87C155.5 87 158.958 86.875 162.125 86.625C160.875 82.125 159.583 77.6667 158.25 73.25C156.917 68.8333 155.667 64.8333 154.5 61.25ZM189 48.125C191.5 48.5417 194.75 48.8333 198.75 49C202.75 49.1667 206.875 49.25 211.125 49.25C215.375 49.25 219.417 49.125 223.25 48.875C227.083 48.5417 230.167 48.125 232.5 47.625C233.583 46.5417 234.667 45.75 235.75 45.25C236.833 44.75 238.083 44.2917 239.5 43.875C240.5 44.125 241.375 44.9167 242.125 46.25C242.958 47.5 243.375 48.8333 243.375 50.25C243.375 51.6667 243.125 52.875 242.625 53.875C242.125 54.7917 241.25 55.375 240 55.625C237.083 56.2917 233.833 56.875 230.25 57.375C226.667 57.875 223 58.2083 219.25 58.375V72C219.25 76.1667 219.25 80.5833 219.25 85.25C219.25 89.9167 219.208 94.3333 219.125 98.5C219.125 102.667 219.083 106.375 219 109.625C218.917 112.792 218.833 114.958 218.75 116.125C218.5 117.125 217.833 117.833 216.75 118.25C215.75 118.75 214.667 119 213.5 119C212.333 119 211.25 118.708 210.25 118.125C209.25 117.542 208.75 116.792 208.75 115.875C208.75 115.208 208.75 114.167 208.75 112.75C208.75 111.25 208.792 109.292 208.875 106.875L209.625 72.75C209.708 69.8333 209.75 67.2083 209.75 64.875C209.75 62.4583 209.75 60.375 209.75 58.625C206 58.625 202.583 58.625 199.5 58.625C196.5 58.5417 193.875 58.3333 191.625 58C189.458 57.5833 187.75 56.9583 186.5 56.125C185.333 55.2917 184.75 54.0417 184.75 52.375C184.75 51.2083 185.125 50.2083 185.875 49.375C186.625 48.5417 187.667 48.125 189 48.125Z" fill="black"/>
<path d="M51 189.875C51.4167 184.125 51.75 178.5 52 173C52.25 167.5 52.375 161.917 52.375 156.25C52.375 152.25 52.2917 148.208 52.125 144.125C52.0417 140.042 51.9167 135.875 51.75 131.625C51.75 130.708 52.2083 130 53.125 129.5C54.125 128.917 55.2083 128.625 56.375 128.625C57.2917 128.625 58.1667 128.792 59 129.125C59.9167 129.458 60.5417 129.958 60.875 130.625C62.875 129.708 65 129 67.25 128.5C69.5833 127.917 71.9167 127.625 74.25 127.625C79.4167 127.625 83.7917 128.625 87.375 130.625C91.0417 132.542 94 135.083 96.25 138.25C98.5 141.333 100.125 144.833 101.125 148.75C102.208 152.667 102.75 156.583 102.75 160.5C102.75 165.667 101.917 170.375 100.25 174.625C98.6667 178.792 96.5417 182.417 93.875 185.5C91.2917 188.5 88.2917 190.875 84.875 192.625C81.5417 194.375 78.0833 195.375 74.5 195.625C73.8333 195.708 73.0417 195.75 72.125 195.75C71.2083 195.833 70.1667 195.875 69 195.875C64.0833 195.875 59.7083 195.333 55.875 194.25C54.7083 194.25 53.5833 194.042 52.5 193.625C51.5 193.125 51 192.083 51 190.5V189.875ZM61.25 141C61.25 143.167 61.25 145.208 61.25 147.125C61.3333 149.042 61.375 150.958 61.375 152.875C61.375 155.708 61.3333 158.458 61.25 161.125C61.25 163.708 61.2083 166.333 61.125 169C61.0417 171.667 60.9167 174.417 60.75 177.25C60.6667 180 60.5833 182.917 60.5 186C63.0833 186.583 65.8333 186.875 68.75 186.875C71.3333 186.875 74.0417 186.458 76.875 185.625C79.7917 184.708 82.4583 183.333 84.875 181.5C87.2917 179.583 89.2917 177.125 90.875 174.125C92.4583 171.042 93.25 167.292 93.25 162.875C93.25 159.375 92.875 156.042 92.125 152.875C91.375 149.708 90.1667 146.958 88.5 144.625C86.9167 142.208 84.8333 140.292 82.25 138.875C79.75 137.458 76.7083 136.75 73.125 136.75C71.2083 136.75 69.25 137.042 67.25 137.625C65.25 138.208 63.25 139.333 61.25 141ZM135.125 133.875C135.958 133.042 136.875 132.625 137.875 132.625C140.542 132.625 143.292 133.333 146.125 134.75C148.958 136.083 151.5 138 153.75 140.5C156.083 143 158 146.083 159.5 149.75C161 153.333 161.75 157.375 161.75 161.875C161.75 165.875 161.208 169.667 160.125 173.25C159.125 176.833 157.542 180 155.375 182.75C153.208 185.5 150.458 187.667 147.125 189.25C143.875 190.833 139.958 191.625 135.375 191.625C132.208 191.625 129.208 190.917 126.375 189.5C123.625 188 121.167 186 119 183.5C116.917 181 115.25 178.042 114 174.625C112.833 171.208 112.25 167.542 112.25 163.625C112.25 159.125 113 155 114.5 151.25C116 147.5 117.792 144.292 119.875 141.625C122.042 138.875 124.25 136.75 126.5 135.25C128.833 133.75 130.833 133 132.5 133C133.333 133 134.208 133.292 135.125 133.875ZM136 140.875C135.833 141.042 135.708 141.125 135.625 141.125H135.5C131.5 142.958 128.25 145.875 125.75 149.875C123.333 153.792 122.125 158.708 122.125 164.625C122.125 170.542 123.5 175 126.25 178C129.083 181 132.375 182.5 136.125 182.5C138.708 182.5 140.958 181.958 142.875 180.875C144.875 179.792 146.542 178.333 147.875 176.5C149.208 174.667 150.208 172.583 150.875 170.25C151.625 167.833 152 165.333 152 162.75C152 159.167 151.5 156.083 150.5 153.5C149.583 150.833 148.375 148.667 146.875 147C145.375 145.25 143.667 143.917 141.75 143C139.833 142 137.917 141.292 136 140.875ZM226.25 130.375C226.5 129.375 227.125 128.625 228.125 128.125C229.208 127.542 230.333 127.25 231.5 127.25C232.583 127.25 233.625 127.5 234.625 128C235.708 128.417 236.417 129.125 236.75 130.125C238.833 142.458 240.208 153.458 240.875 163.125C241.625 172.708 242.25 181.292 242.75 188.875C242.667 189.875 242.167 190.625 241.25 191.125C240.417 191.625 239.5 191.875 238.5 191.875C237.417 191.875 236.417 191.667 235.5 191.25C234.667 190.833 234.25 190.125 234.25 189.125C234 182.375 233.583 175.083 233 167.25C232.417 159.417 231.5 150.875 230.25 141.625C229 145.125 227.583 148.875 226 152.875C224.417 156.792 222.792 160.75 221.125 164.75C219.542 168.75 217.958 172.667 216.375 176.5C214.875 180.25 213.5 183.708 212.25 186.875C211.583 188.542 210.625 189.792 209.375 190.625C208.208 191.375 207.042 191.75 205.875 191.75C204.875 191.75 203.917 191.167 203 190C202.167 188.75 201.292 187.125 200.375 185.125C199.542 183.125 198.667 180.875 197.75 178.375C196.917 175.792 196 173.167 195 170.5C193.583 166.75 192.125 162.958 190.625 159.125C189.208 155.292 188 151.625 187 148.125C186.583 151.208 186.125 154.5 185.625 158C185.208 161.417 184.667 164.958 184 168.625C183.417 172.208 182.625 175.833 181.625 179.5C180.708 183.167 179.5 186.708 178 190.125C177.667 190.875 177.125 191.417 176.375 191.75C175.708 192.083 175 192.25 174.25 192.25C173.083 192.25 171.958 191.917 170.875 191.25C169.875 190.5 169.375 189.5 169.375 188.25C169.375 187.833 169.417 187.542 169.5 187.375C171.167 182.875 172.542 178.208 173.625 173.375C174.708 168.458 175.625 163.625 176.375 158.875C177.125 154.042 177.792 149.417 178.375 145C178.958 140.5 179.583 136.375 180.25 132.625C180.25 131.625 180.75 130.792 181.75 130.125C182.75 129.458 183.833 129.125 185 129.125C185.917 129.125 186.833 129.333 187.75 129.75C188.75 130.083 189.417 130.708 189.75 131.625C191.5 136.542 193.125 141.125 194.625 145.375C196.208 149.542 197.667 153.5 199 157.25C200.417 161 201.75 164.625 203 168.125C204.25 171.542 205.5 174.958 206.75 178.375L215.875 155.25C217.458 151.25 219.083 147.25 220.75 143.25C222.417 139.167 224.25 134.875 226.25 130.375ZM271 127.125C271.667 125.958 272.5 125.25 273.5 125C274.5 124.667 275.458 124.5 276.375 124.5C277.792 124.5 279.458 126.5 281.375 130.5C283.292 134.5 285.292 139.708 287.375 146.125C289.542 152.542 291.708 159.792 293.875 167.875C296.042 175.958 298 184.125 299.75 192.375C299.75 192.542 299.75 192.708 299.75 192.875C299.833 192.958 299.875 193.083 299.875 193.25C299.875 194.583 299.333 195.708 298.25 196.625C297.167 197.542 295.917 198 294.5 198C293.583 198 292.792 197.708 292.125 197.125C291.458 196.625 291 195.708 290.75 194.375C290.333 191.958 289.625 189 288.625 185.5C287.625 182 286.667 178.25 285.75 174.25C283.917 174.417 281.75 174.583 279.25 174.75C276.833 174.833 274.333 174.875 271.75 174.875C270.417 174.875 269.125 174.875 267.875 174.875C266.708 174.792 265.542 174.708 264.375 174.625C263.042 178.875 261.833 182.708 260.75 186.125C259.667 189.542 258.833 192.292 258.25 194.375C257.833 195.792 257.208 196.75 256.375 197.25C255.625 197.75 254.792 198 253.875 198C252.708 198 251.583 197.542 250.5 196.625C249.5 195.792 249 194.792 249 193.625C249 193.458 249.083 193.042 249.25 192.375L259.625 159C260.625 155.667 261.667 152.375 262.75 149.125C263.833 145.792 264.875 142.708 265.875 139.875C266.875 137.042 267.792 134.542 268.625 132.375C269.542 130.125 270.333 128.375 271 127.125ZM275.75 140.25C274.417 143.833 273 147.875 271.5 152.375C270 156.875 268.542 161.375 267.125 165.875C268.042 165.875 269 165.917 270 166C271 166 272 166 273 166C276.75 166 280.208 165.875 283.375 165.625C282.125 161.125 280.833 156.667 279.5 152.25C278.167 147.833 276.917 143.833 275.75 140.25ZM314 130.875C313.333 129.958 313 129.125 313 128.375C313 127.125 313.583 126.042 314.75 125.125C315.917 124.208 317.125 123.75 318.375 123.75C319.542 123.75 320.667 124.333 321.75 125.5C322.917 126.667 323.958 128.083 324.875 129.75C325.875 131.333 326.75 133 327.5 134.75C328.333 136.417 329 137.792 329.5 138.875C329.833 143.375 330.083 148.25 330.25 153.5C330.5 158.75 330.625 164 330.625 169.25C330.625 174.5 330.542 179.458 330.375 184.125C330.208 188.792 329.917 192.708 329.5 195.875C329.333 197.208 328.792 198.167 327.875 198.75C327.042 199.333 326.167 199.625 325.25 199.625C323.833 199.625 322.542 199.25 321.375 198.5C320.292 197.75 319.75 196.708 319.75 195.375C319.75 191.875 319.875 187.792 320.125 183.125C320.458 178.458 320.625 173.583 320.625 168.5C320.625 163.667 320.583 158.875 320.5 154.125C320.417 149.375 320.25 145.125 320 141.375C319.25 139.792 318.375 138.083 317.375 136.25C316.375 134.417 315.25 132.625 314 130.875ZM358 191.375C357.75 192.625 357.125 193.583 356.125 194.25C355.125 194.833 354.083 195.125 353 195.125C351.75 195.125 350.708 194.792 349.875 194.125C349.125 193.375 348.75 192.292 348.75 190.875L350.25 162.375C350.417 159.542 350.5 156.792 350.5 154.125C350.583 151.458 350.625 148.917 350.625 146.5C350.625 142.25 350.5 138.792 350.25 136.125C349.667 135.208 349 134.417 348.25 133.75C347.5 133 347.125 132.042 347.125 130.875C347.125 128.625 348.875 127.5 352.375 127.5C353.875 127.5 355.042 127.792 355.875 128.375C356.708 128.958 357.708 129.792 358.875 130.875L359.25 131.375C360.167 133.292 361.667 136 363.75 139.5C365.917 142.917 368.375 146.75 371.125 151C373.875 155.167 376.708 159.5 379.625 164C382.625 168.5 385.417 172.708 388 176.625C388.25 168.875 388.375 160.792 388.375 152.375C388.375 148.208 388.333 144.125 388.25 140.125C388.25 136.042 388.167 132.125 388 128.375C388 127.375 388.458 126.625 389.375 126.125C390.292 125.542 391.333 125.25 392.5 125.25C393.5 125.25 394.458 125.458 395.375 125.875C396.292 126.292 396.917 126.958 397.25 127.875C397.417 134.125 397.5 139.875 397.5 145.125C397.583 150.292 397.625 155.375 397.625 160.375C397.625 165.375 397.458 170.375 397.125 175.375C396.875 180.292 396.667 185.625 396.5 191.375C396.25 192.792 395.667 193.833 394.75 194.5C393.917 195.167 393.042 195.5 392.125 195.5C391.208 195.5 390.417 195.333 389.75 195C389.083 194.75 388.417 194.125 387.75 193.125C385.583 189.542 383.25 185.875 380.75 182.125C378.333 178.375 375.875 174.667 373.375 171C370.958 167.333 368.583 163.75 366.25 160.25C363.917 156.667 361.75 153.333 359.75 150.25C359.75 154.333 359.708 158.417 359.625 162.5C359.542 166.583 359.417 170.458 359.25 174.125C359.083 177.708 358.875 181 358.625 184C358.458 186.917 358.25 189.375 358 191.375Z" fill="black"/>
</svg>
